<svg width="64" height="64" viewBox="0 0 64 64" fill="none" xmlns="http://www.w3.org/2000/svg">
  <!-- Black background -->
  <rect width="64" height="64" fill="black"/>
  
  <!-- Scaled down version of the original logo -->
  <g transform="scale(0.055) translate(50, 50)">
    <path opacity="0.91" d="M189.682 53.8155L190.67 103.026L141.167 104.02L144.555 272.742L95.3444 273.731L91.956 105.009L42.4524 106.003L41.4641 56.7922L189.682 53.8155ZM376.793 181.339C376.829 192.864 374.901 203.843 371.008 214.275C367.115 224.708 361.345 234.103 353.698 242.462C345.865 251.215 336.818 257.941 326.558 262.64C316.494 267.336 305.701 269.799 294.179 270.031L293.886 270.036C282.56 270.264 271.677 268.236 261.237 263.952C250.992 259.665 241.684 253.405 233.314 245.173C225.533 237.124 219.391 227.968 214.887 217.704C210.578 207.436 208.209 196.446 207.778 184.733L206.754 133.765C207.523 123.396 209.866 113.581 213.782 104.32C217.894 95.0557 223.293 86.6445 229.979 79.0866C238.012 70.5248 247.06 63.8963 257.125 59.2009C267.189 54.5055 277.982 52.0421 289.504 51.8107L289.797 51.8048C301.318 51.5735 312.201 53.6015 322.446 57.889C332.886 62.1726 342.194 68.4325 350.369 76.6688C357.548 83.9483 363.28 92.1359 367.565 101.232C371.851 110.328 374.585 120.041 375.77 130.371L375.899 136.815L376.44 163.764L376.793 181.339ZM594.338 45.6887L598.715 263.622L549.504 264.61L547.974 188.45L522.848 265.145L473.637 266.133L444.819 188.178L446.396 266.681L397.185 267.669L392.808 49.736L442.898 48.7301L496.819 194.753L545.127 46.677L594.338 45.6887ZM141.714 539.853L101.976 458.015L101.39 458.026L103.049 540.63L53.8383 541.618L49.4615 323.685L115.662 322.356L115.954 322.35C125.328 322.162 134.151 323.743 142.423 327.093C150.891 330.44 158.214 335.176 164.393 341.304C170.764 347.232 175.789 354.262 179.469 362.393C183.149 370.524 185.083 379.276 185.271 388.65C185.538 401.929 182.361 414.007 175.742 424.885C169.119 435.567 160.299 443.852 149.282 449.739L192.39 538.836L141.714 539.853ZM374.439 448.147C374.475 459.673 372.546 470.651 368.653 481.084C364.76 491.516 358.99 500.911 351.344 509.27C343.51 518.023 334.463 524.749 324.204 529.449C314.139 534.144 303.346 536.607 291.825 536.839L291.532 536.845C280.206 537.072 269.322 535.044 258.882 530.76C248.638 526.473 239.328 520.115 230.954 511.688C223.173 503.639 217.031 494.483 212.527 484.219C208.218 473.952 205.85 463.059 205.424 451.541L202.788 320.313L251.999 319.325L254.617 449.674C254.722 454.947 255.701 459.909 257.553 464.56C259.6 469.208 262.221 473.258 265.416 476.71C268.806 480.158 272.671 482.914 277.01 484.975C281.346 486.842 285.954 487.726 290.836 487.628C295.718 487.53 300.19 486.463 304.252 484.428C308.505 482.194 312.158 479.288 315.212 475.71C318.461 472.128 320.918 467.976 322.581 463.254C324.44 458.528 325.316 453.529 325.21 448.257L322.593 317.907L371.803 316.919L374.439 448.147ZM500.612 314.625L549.822 313.637L554.199 531.569L504.403 532.569L440.442 411.95L442.889 533.805L393.679 534.793L389.302 316.86L439.391 315.854L503.053 436.187L500.612 314.625ZM703.552 460.878C703.623 464.393 703.399 467.816 702.879 471.148C702.556 474.475 701.939 477.809 701.029 481.148C699.018 488.026 696.021 494.436 692.038 500.376C688.055 506.317 683.275 511.492 677.698 515.902C672.117 520.117 665.933 523.465 659.145 525.945C652.357 528.426 645.155 529.743 637.54 529.896C628.166 530.084 619.343 528.503 611.071 525.153C602.994 521.798 595.77 517.157 589.399 511.229C583.22 505.101 578.291 497.972 574.611 489.841C570.931 481.71 568.997 472.957 568.809 463.584L618.02 462.596C618.122 467.673 619.967 472.032 623.557 475.671C627.142 479.116 631.474 480.787 636.551 480.685C640.652 480.603 644.241 479.358 647.319 476.952C650.392 474.351 652.478 471.183 653.575 467.449C654.129 465.875 654.387 464.112 654.348 462.159C654.246 457.082 652.406 453.016 648.828 449.962C645.25 446.909 640.923 445.433 635.845 445.535C626.472 445.723 617.651 444.239 609.382 441.084C601.305 437.73 594.084 433.187 587.717 427.454C581.542 421.521 576.616 414.587 572.94 406.652C569.264 398.716 567.332 390.061 567.144 380.688C567.077 377.368 567.206 374.044 567.53 370.716C568.049 367.385 568.764 364.05 569.673 360.71C571.684 353.832 574.681 347.423 578.664 341.482C582.648 335.541 587.43 330.464 593.01 326.249C598.587 321.839 604.769 318.394 611.557 315.913C618.345 313.433 625.547 312.116 633.163 311.963C642.536 311.775 651.261 313.358 659.339 316.712C667.611 320.062 674.837 324.801 681.016 330.928C687.386 336.857 692.412 343.886 696.091 352.017C699.771 360.149 701.703 368.803 701.888 377.981L652.677 378.97C652.575 373.892 650.731 369.632 647.145 366.187C643.56 362.743 639.228 361.071 634.151 361.173C630.05 361.256 626.463 362.598 623.389 365.199C620.312 367.605 618.225 370.675 617.128 374.409C616.569 375.788 616.312 377.551 616.355 379.699C616.457 384.777 618.297 388.842 621.874 391.896C625.452 394.95 629.78 396.426 634.857 396.324C644.23 396.136 652.956 397.719 661.033 401.073C669.301 404.228 676.523 408.772 682.698 414.704C689.065 420.437 694.086 427.271 697.762 435.207C701.438 443.143 703.368 451.7 703.552 460.878ZM202.73 805.682L171.744 721.909L131.321 722.721L103.723 807.67L50.7047 808.735L121.901 589.284L175.799 588.202L255.749 804.617L202.73 805.682ZM318.817 754.12L377.108 752.949L378.096 802.16L270.594 804.319L266.217 586.386L315.428 585.398L318.817 754.12ZM563.725 711.692C563.761 723.218 561.833 734.197 557.94 744.629C554.047 755.061 548.277 764.457 540.631 772.815C532.797 781.568 523.75 788.295 513.49 792.994C503.426 797.689 492.633 800.153 481.111 800.384L480.819 800.39C469.492 800.617 458.609 798.589 448.169 794.306C437.924 790.018 428.617 783.758 420.246 775.526C412.466 767.477 406.323 758.321 401.819 748.057C397.511 737.79 395.141 726.8 394.71 715.087L393.687 664.119C394.455 653.749 396.798 643.934 400.714 634.674C404.826 625.409 410.225 616.998 416.911 609.44C424.944 600.878 433.993 594.25 444.057 589.554C454.121 584.859 464.914 582.396 476.436 582.164L476.729 582.158C488.25 581.927 499.133 583.955 509.378 588.243C519.818 592.526 529.126 598.786 537.301 607.022C544.48 614.302 550.212 622.489 554.498 631.585C558.783 640.681 561.518 650.394 562.702 660.724L562.831 667.169L563.372 694.117L563.725 711.692ZM691.05 577.854L740.261 576.866L744.638 794.799L694.841 795.799L630.881 675.179L633.328 797.034L584.117 798.022L579.741 580.09L629.83 579.084L693.492 699.416L691.05 577.854ZM890.79 623.073L806.429 624.767L807.135 659.918L869.234 658.671L870.222 707.881L808.123 709.128L808.829 744.279L893.19 742.585L894.178 791.795L760.607 794.478L756.23 576.545L889.802 573.863L890.79 623.073Z" fill="url(#paint0_linear_1_20)"/>
    
    <!-- Define gradient -->
    <defs>
      <linearGradient id="paint0_linear_1_20" x1="0%" y1="0%" x2="100%" y2="100%">
        <stop offset="0%" style="stop-color:#EBFF39;stop-opacity:1" />
        <stop offset="100%" style="stop-color:#EBFF39;stop-opacity:1" />
      </linearGradient>
    </defs>
  </g>
</svg>
